<mxfile host="Electron" modified="2024-03-11T21:01:59.323Z" agent="Mozilla/5.0 (Windows NT 10.0; Win64; x64) AppleWebKit/537.36 (KHTML, like Gecko) draw.io/21.2.1 Chrome/112.0.5615.87 Electron/24.1.2 Safari/537.36" etag="qACYgyg4Pp-ZqGc5SaOj" version="21.2.1" type="device">
  <diagram name="Strona-1" id="BchxE57i_t1PECSyct9q">
    <mxGraphModel dx="2328" dy="713" grid="1" gridSize="10" guides="1" tooltips="1" connect="1" arrows="1" fold="1" page="1" pageScale="1" pageWidth="827" pageHeight="1169" math="0" shadow="0">
      <root>
        <mxCell id="0" />
        <mxCell id="1" parent="0" />
        <mxCell id="ITwDlLuQBXxI53-09EQk-1" value="EditorCommand" style="swimlane;fontStyle=1;align=center;verticalAlign=top;childLayout=stackLayout;horizontal=1;startSize=26;horizontalStack=0;resizeParent=1;resizeParentMax=0;resizeLast=0;collapsible=1;marginBottom=0;whiteSpace=wrap;html=1;" parent="1" vertex="1">
          <mxGeometry x="540" y="130" width="230" height="86" as="geometry" />
        </mxCell>
        <mxCell id="ITwDlLuQBXxI53-09EQk-2" value="&amp;nbsp;" style="text;strokeColor=none;fillColor=none;align=left;verticalAlign=top;spacingLeft=4;spacingRight=4;overflow=hidden;rotatable=0;points=[[0,0.5],[1,0.5]];portConstraint=eastwest;whiteSpace=wrap;html=1;" parent="ITwDlLuQBXxI53-09EQk-1" vertex="1">
          <mxGeometry y="26" width="230" height="26" as="geometry" />
        </mxCell>
        <mxCell id="ITwDlLuQBXxI53-09EQk-3" value="" style="line;strokeWidth=1;fillColor=none;align=left;verticalAlign=middle;spacingTop=-1;spacingLeft=3;spacingRight=3;rotatable=0;labelPosition=right;points=[];portConstraint=eastwest;strokeColor=inherit;" parent="ITwDlLuQBXxI53-09EQk-1" vertex="1">
          <mxGeometry y="52" width="230" height="8" as="geometry" />
        </mxCell>
        <mxCell id="ITwDlLuQBXxI53-09EQk-4" value="+ Execute(): void" style="text;strokeColor=none;fillColor=none;align=left;verticalAlign=top;spacingLeft=4;spacingRight=4;overflow=hidden;rotatable=0;points=[[0,0.5],[1,0.5]];portConstraint=eastwest;whiteSpace=wrap;html=1;" parent="ITwDlLuQBXxI53-09EQk-1" vertex="1">
          <mxGeometry y="60" width="230" height="26" as="geometry" />
        </mxCell>
        <mxCell id="ITwDlLuQBXxI53-09EQk-5" value="«interface»&lt;br&gt;" style="html=1;whiteSpace=wrap;" parent="1" vertex="1">
          <mxGeometry x="540" y="100" width="230" height="30" as="geometry" />
        </mxCell>
        <mxCell id="ITwDlLuQBXxI53-09EQk-6" value="FillUnitEditorCommand" style="swimlane;fontStyle=1;align=center;verticalAlign=top;childLayout=stackLayout;horizontal=1;startSize=26;horizontalStack=0;resizeParent=1;resizeParentMax=0;resizeLast=0;collapsible=1;marginBottom=0;whiteSpace=wrap;html=1;" parent="1" vertex="1">
          <mxGeometry x="310" y="340" width="210" height="86" as="geometry" />
        </mxCell>
        <mxCell id="ITwDlLuQBXxI53-09EQk-7" value="- receiverUnit: CanvaUnit" style="text;strokeColor=none;fillColor=none;align=left;verticalAlign=top;spacingLeft=4;spacingRight=4;overflow=hidden;rotatable=0;points=[[0,0.5],[1,0.5]];portConstraint=eastwest;whiteSpace=wrap;html=1;" parent="ITwDlLuQBXxI53-09EQk-6" vertex="1">
          <mxGeometry y="26" width="210" height="26" as="geometry" />
        </mxCell>
        <mxCell id="ITwDlLuQBXxI53-09EQk-8" value="" style="line;strokeWidth=1;fillColor=none;align=left;verticalAlign=middle;spacingTop=-1;spacingLeft=3;spacingRight=3;rotatable=0;labelPosition=right;points=[];portConstraint=eastwest;strokeColor=inherit;" parent="ITwDlLuQBXxI53-09EQk-6" vertex="1">
          <mxGeometry y="52" width="210" height="8" as="geometry" />
        </mxCell>
        <mxCell id="ITwDlLuQBXxI53-09EQk-9" value="+ Execute(): void" style="text;strokeColor=none;fillColor=none;align=left;verticalAlign=top;spacingLeft=4;spacingRight=4;overflow=hidden;rotatable=0;points=[[0,0.5],[1,0.5]];portConstraint=eastwest;whiteSpace=wrap;html=1;" parent="ITwDlLuQBXxI53-09EQk-6" vertex="1">
          <mxGeometry y="60" width="210" height="26" as="geometry" />
        </mxCell>
        <mxCell id="ITwDlLuQBXxI53-09EQk-10" value="WipeUnitEditorCommand" style="swimlane;fontStyle=1;align=center;verticalAlign=top;childLayout=stackLayout;horizontal=1;startSize=26;horizontalStack=0;resizeParent=1;resizeParentMax=0;resizeLast=0;collapsible=1;marginBottom=0;whiteSpace=wrap;html=1;" parent="1" vertex="1">
          <mxGeometry x="547" y="340" width="210" height="86" as="geometry" />
        </mxCell>
        <mxCell id="ITwDlLuQBXxI53-09EQk-11" value="- receiverUnit: CanvaUnit" style="text;strokeColor=none;fillColor=none;align=left;verticalAlign=top;spacingLeft=4;spacingRight=4;overflow=hidden;rotatable=0;points=[[0,0.5],[1,0.5]];portConstraint=eastwest;whiteSpace=wrap;html=1;" parent="ITwDlLuQBXxI53-09EQk-10" vertex="1">
          <mxGeometry y="26" width="210" height="26" as="geometry" />
        </mxCell>
        <mxCell id="ITwDlLuQBXxI53-09EQk-12" value="" style="line;strokeWidth=1;fillColor=none;align=left;verticalAlign=middle;spacingTop=-1;spacingLeft=3;spacingRight=3;rotatable=0;labelPosition=right;points=[];portConstraint=eastwest;strokeColor=inherit;" parent="ITwDlLuQBXxI53-09EQk-10" vertex="1">
          <mxGeometry y="52" width="210" height="8" as="geometry" />
        </mxCell>
        <mxCell id="ITwDlLuQBXxI53-09EQk-13" value="+ Execute(): void" style="text;strokeColor=none;fillColor=none;align=left;verticalAlign=top;spacingLeft=4;spacingRight=4;overflow=hidden;rotatable=0;points=[[0,0.5],[1,0.5]];portConstraint=eastwest;whiteSpace=wrap;html=1;" parent="ITwDlLuQBXxI53-09EQk-10" vertex="1">
          <mxGeometry y="60" width="210" height="26" as="geometry" />
        </mxCell>
        <mxCell id="ITwDlLuQBXxI53-09EQk-18" value="EditorMenu" style="swimlane;fontStyle=1;align=center;verticalAlign=top;childLayout=stackLayout;horizontal=1;startSize=26;horizontalStack=0;resizeParent=1;resizeParentMax=0;resizeLast=0;collapsible=1;marginBottom=0;whiteSpace=wrap;html=1;" parent="1" vertex="1">
          <mxGeometry x="110" y="100" width="340" height="180" as="geometry" />
        </mxCell>
        <mxCell id="ITwDlLuQBXxI53-09EQk-19" value="&amp;nbsp;- editorCanva: Canva&lt;br&gt;- commandBuffer: List&amp;lt;EditorCommand&amp;gt;" style="text;strokeColor=none;fillColor=none;align=left;verticalAlign=top;spacingLeft=4;spacingRight=4;overflow=hidden;rotatable=0;points=[[0,0.5],[1,0.5]];portConstraint=eastwest;whiteSpace=wrap;html=1;" parent="ITwDlLuQBXxI53-09EQk-18" vertex="1">
          <mxGeometry y="26" width="340" height="44" as="geometry" />
        </mxCell>
        <mxCell id="ITwDlLuQBXxI53-09EQk-20" value="" style="line;strokeWidth=1;fillColor=none;align=left;verticalAlign=middle;spacingTop=-1;spacingLeft=3;spacingRight=3;rotatable=0;labelPosition=right;points=[];portConstraint=eastwest;strokeColor=inherit;" parent="ITwDlLuQBXxI53-09EQk-18" vertex="1">
          <mxGeometry y="70" width="340" height="8" as="geometry" />
        </mxCell>
        <mxCell id="ITwDlLuQBXxI53-09EQk-21" value="+ DrawLine(start: Coordinations, stop:Coordinations) : void&lt;br&gt;+ FillBlock(a: Coordinations, b:Coordinations,&lt;br&gt;&amp;nbsp; &amp;nbsp; &amp;nbsp; &amp;nbsp; &amp;nbsp; &amp;nbsp; &amp;nbsp; &amp;nbsp; &amp;nbsp; c: Coordinations, d:Coordinations) : void&lt;br&gt;+ WipeBlock(a: Coordinations, b:Coordinations,&lt;br style=&quot;border-color: var(--border-color);&quot;&gt;&amp;nbsp; &amp;nbsp; &amp;nbsp; &amp;nbsp; &amp;nbsp; &amp;nbsp; &amp;nbsp; &amp;nbsp; &amp;nbsp; &amp;nbsp; &amp;nbsp;c: Coordinations, d:Coordinations) : void&lt;br&gt;&amp;nbsp;+ GetCanvaRepresentation(): String" style="text;strokeColor=none;fillColor=none;align=left;verticalAlign=top;spacingLeft=4;spacingRight=4;overflow=hidden;rotatable=0;points=[[0,0.5],[1,0.5]];portConstraint=eastwest;whiteSpace=wrap;html=1;" parent="ITwDlLuQBXxI53-09EQk-18" vertex="1">
          <mxGeometry y="78" width="340" height="102" as="geometry" />
        </mxCell>
        <mxCell id="ITwDlLuQBXxI53-09EQk-22" value="CanvaUnit" style="swimlane;fontStyle=1;align=center;verticalAlign=top;childLayout=stackLayout;horizontal=1;startSize=26;horizontalStack=0;resizeParent=1;resizeParentMax=0;resizeLast=0;collapsible=1;marginBottom=0;whiteSpace=wrap;html=1;" parent="1" vertex="1">
          <mxGeometry x="-220" y="356" width="210" height="100" as="geometry" />
        </mxCell>
        <mxCell id="ITwDlLuQBXxI53-09EQk-23" value="- isFilled: bool" style="text;strokeColor=none;fillColor=none;align=left;verticalAlign=top;spacingLeft=4;spacingRight=4;overflow=hidden;rotatable=0;points=[[0,0.5],[1,0.5]];portConstraint=eastwest;whiteSpace=wrap;html=1;" parent="ITwDlLuQBXxI53-09EQk-22" vertex="1">
          <mxGeometry y="26" width="210" height="26" as="geometry" />
        </mxCell>
        <mxCell id="ITwDlLuQBXxI53-09EQk-24" value="" style="line;strokeWidth=1;fillColor=none;align=left;verticalAlign=middle;spacingTop=-1;spacingLeft=3;spacingRight=3;rotatable=0;labelPosition=right;points=[];portConstraint=eastwest;strokeColor=inherit;" parent="ITwDlLuQBXxI53-09EQk-22" vertex="1">
          <mxGeometry y="52" width="210" height="8" as="geometry" />
        </mxCell>
        <mxCell id="ITwDlLuQBXxI53-09EQk-25" value="+ Fill(): void&lt;br&gt;+ Wipe(): void" style="text;strokeColor=none;fillColor=none;align=left;verticalAlign=top;spacingLeft=4;spacingRight=4;overflow=hidden;rotatable=0;points=[[0,0.5],[1,0.5]];portConstraint=eastwest;whiteSpace=wrap;html=1;" parent="ITwDlLuQBXxI53-09EQk-22" vertex="1">
          <mxGeometry y="60" width="210" height="40" as="geometry" />
        </mxCell>
        <mxCell id="ITwDlLuQBXxI53-09EQk-26" value="Canva" style="swimlane;fontStyle=1;align=center;verticalAlign=top;childLayout=stackLayout;horizontal=1;startSize=26;horizontalStack=0;resizeParent=1;resizeParentMax=0;resizeLast=0;collapsible=1;marginBottom=0;whiteSpace=wrap;html=1;" parent="1" vertex="1">
          <mxGeometry x="-280" y="100" width="330" height="138" as="geometry" />
        </mxCell>
        <mxCell id="ITwDlLuQBXxI53-09EQk-27" value="- width: uint&lt;br&gt;- height: uint&amp;nbsp;&lt;br&gt;- space: List&amp;lt;List&amp;lt;CanvaUnit&amp;gt;&amp;gt;" style="text;strokeColor=none;fillColor=none;align=left;verticalAlign=top;spacingLeft=4;spacingRight=4;overflow=hidden;rotatable=0;points=[[0,0.5],[1,0.5]];portConstraint=eastwest;whiteSpace=wrap;html=1;" parent="ITwDlLuQBXxI53-09EQk-26" vertex="1">
          <mxGeometry y="26" width="330" height="64" as="geometry" />
        </mxCell>
        <mxCell id="ITwDlLuQBXxI53-09EQk-28" value="" style="line;strokeWidth=1;fillColor=none;align=left;verticalAlign=middle;spacingTop=-1;spacingLeft=3;spacingRight=3;rotatable=0;labelPosition=right;points=[];portConstraint=eastwest;strokeColor=inherit;" parent="ITwDlLuQBXxI53-09EQk-26" vertex="1">
          <mxGeometry y="90" width="330" height="8" as="geometry" />
        </mxCell>
        <mxCell id="ITwDlLuQBXxI53-09EQk-29" value="&amp;nbsp;+ GetUnit(cords, Coordinations): CanvaUnit&lt;br&gt;&amp;nbsp;+ GetCanvaRepresentation(): String" style="text;strokeColor=none;fillColor=none;align=left;verticalAlign=top;spacingLeft=4;spacingRight=4;overflow=hidden;rotatable=0;points=[[0,0.5],[1,0.5]];portConstraint=eastwest;whiteSpace=wrap;html=1;" parent="ITwDlLuQBXxI53-09EQk-26" vertex="1">
          <mxGeometry y="98" width="330" height="40" as="geometry" />
        </mxCell>
        <mxCell id="ITwDlLuQBXxI53-09EQk-30" value="" style="endArrow=diamondThin;endFill=0;endSize=24;html=1;rounded=0;exitX=0.5;exitY=0;exitDx=0;exitDy=0;" parent="1" source="ITwDlLuQBXxI53-09EQk-22" target="ITwDlLuQBXxI53-09EQk-29" edge="1">
          <mxGeometry width="160" relative="1" as="geometry">
            <mxPoint x="-70" y="300" as="sourcePoint" />
            <mxPoint x="-70" y="250" as="targetPoint" />
          </mxGeometry>
        </mxCell>
        <mxCell id="ITwDlLuQBXxI53-09EQk-32" value="" style="endArrow=diamondThin;endFill=0;endSize=24;html=1;rounded=0;exitX=1;exitY=0.5;exitDx=0;exitDy=0;" parent="1" source="ITwDlLuQBXxI53-09EQk-27" edge="1">
          <mxGeometry width="160" relative="1" as="geometry">
            <mxPoint x="60" y="312" as="sourcePoint" />
            <mxPoint x="110" y="158" as="targetPoint" />
          </mxGeometry>
        </mxCell>
        <mxCell id="ITwDlLuQBXxI53-09EQk-33" value="" style="endArrow=block;dashed=1;endFill=0;endSize=12;html=1;rounded=0;exitX=0.5;exitY=0;exitDx=0;exitDy=0;entryX=0.484;entryY=1.054;entryDx=0;entryDy=0;entryPerimeter=0;" parent="1" source="ITwDlLuQBXxI53-09EQk-10" target="ITwDlLuQBXxI53-09EQk-4" edge="1">
          <mxGeometry width="160" relative="1" as="geometry">
            <mxPoint x="490" y="270" as="sourcePoint" />
            <mxPoint x="650" y="230" as="targetPoint" />
          </mxGeometry>
        </mxCell>
        <mxCell id="ITwDlLuQBXxI53-09EQk-34" value="" style="endArrow=none;dashed=1;html=1;rounded=0;exitX=0.5;exitY=0;exitDx=0;exitDy=0;" parent="1" source="ITwDlLuQBXxI53-09EQk-6" edge="1">
          <mxGeometry width="50" height="50" relative="1" as="geometry">
            <mxPoint x="450" y="300" as="sourcePoint" />
            <mxPoint x="650" y="280" as="targetPoint" />
            <Array as="points">
              <mxPoint x="415" y="280" />
            </Array>
          </mxGeometry>
        </mxCell>
        <mxCell id="ITwDlLuQBXxI53-09EQk-36" value="" style="endArrow=open;endFill=1;endSize=12;html=1;rounded=0;exitX=-0.005;exitY=1.115;exitDx=0;exitDy=0;entryX=1;entryY=0.5;entryDx=0;entryDy=0;exitPerimeter=0;" parent="1" source="ITwDlLuQBXxI53-09EQk-7" target="ITwDlLuQBXxI53-09EQk-23" edge="1">
          <mxGeometry width="160" relative="1" as="geometry">
            <mxPoint x="70" y="440" as="sourcePoint" />
            <mxPoint x="230" y="440" as="targetPoint" />
          </mxGeometry>
        </mxCell>
        <mxCell id="ITwDlLuQBXxI53-09EQk-40" value="" style="endArrow=open;endFill=1;endSize=12;html=1;rounded=0;exitX=0.505;exitY=1.131;exitDx=0;exitDy=0;entryX=1;entryY=0.5;entryDx=0;entryDy=0;exitPerimeter=0;" parent="1" source="ITwDlLuQBXxI53-09EQk-13" target="ITwDlLuQBXxI53-09EQk-25" edge="1">
          <mxGeometry width="160" relative="1" as="geometry">
            <mxPoint x="649" y="490" as="sourcePoint" />
            <mxPoint x="380" y="490" as="targetPoint" />
            <Array as="points">
              <mxPoint x="653" y="480" />
              <mxPoint x="280" y="480" />
              <mxPoint x="280" y="436" />
            </Array>
          </mxGeometry>
        </mxCell>
        <mxCell id="ITwDlLuQBXxI53-09EQk-41" value="&lt;b&gt;RECEIVER&lt;/b&gt;" style="text;html=1;strokeColor=none;fillColor=none;align=center;verticalAlign=middle;whiteSpace=wrap;rounded=0;" parent="1" vertex="1">
          <mxGeometry x="-145" y="470" width="60" height="30" as="geometry" />
        </mxCell>
        <mxCell id="ITwDlLuQBXxI53-09EQk-42" value="&lt;b&gt;INVOKER&lt;/b&gt;" style="text;html=1;strokeColor=none;fillColor=none;align=center;verticalAlign=middle;whiteSpace=wrap;rounded=0;" parent="1" vertex="1">
          <mxGeometry x="240" y="280" width="60" height="30" as="geometry" />
        </mxCell>
        <mxCell id="ITwDlLuQBXxI53-09EQk-43" value="&lt;b&gt;COMMAND IMPLEMENTATIONS&lt;/b&gt;" style="text;html=1;strokeColor=none;fillColor=none;align=center;verticalAlign=middle;whiteSpace=wrap;rounded=0;" parent="1" vertex="1">
          <mxGeometry x="480" y="440" width="60" height="30" as="geometry" />
        </mxCell>
        <mxCell id="ITwDlLuQBXxI53-09EQk-44" value="&lt;b&gt;COMMAND&lt;/b&gt;" style="text;html=1;strokeColor=none;fillColor=none;align=center;verticalAlign=middle;whiteSpace=wrap;rounded=0;" parent="1" vertex="1">
          <mxGeometry x="570" y="228" width="60" height="30" as="geometry" />
        </mxCell>
        <mxCell id="ITwDlLuQBXxI53-09EQk-45" value="Coordinations" style="swimlane;fontStyle=0;childLayout=stackLayout;horizontal=1;startSize=30;horizontalStack=0;resizeParent=1;resizeParentMax=0;resizeLast=0;collapsible=1;marginBottom=0;whiteSpace=wrap;html=1;" parent="1" vertex="1">
          <mxGeometry x="-440" y="250" width="140" height="90" as="geometry" />
        </mxCell>
        <mxCell id="ITwDlLuQBXxI53-09EQk-46" value="x : int" style="text;strokeColor=none;fillColor=none;align=left;verticalAlign=middle;spacingLeft=4;spacingRight=4;overflow=hidden;points=[[0,0.5],[1,0.5]];portConstraint=eastwest;rotatable=0;whiteSpace=wrap;html=1;" parent="ITwDlLuQBXxI53-09EQk-45" vertex="1">
          <mxGeometry y="30" width="140" height="30" as="geometry" />
        </mxCell>
        <mxCell id="ITwDlLuQBXxI53-09EQk-47" value="y: int" style="text;strokeColor=none;fillColor=none;align=left;verticalAlign=middle;spacingLeft=4;spacingRight=4;overflow=hidden;points=[[0,0.5],[1,0.5]];portConstraint=eastwest;rotatable=0;whiteSpace=wrap;html=1;" parent="ITwDlLuQBXxI53-09EQk-45" vertex="1">
          <mxGeometry y="60" width="140" height="30" as="geometry" />
        </mxCell>
        <mxCell id="ITwDlLuQBXxI53-09EQk-49" value="1" style="endArrow=open;html=1;endSize=12;startArrow=diamondThin;startSize=14;startFill=0;edgeStyle=orthogonalEdgeStyle;align=left;verticalAlign=bottom;rounded=0;entryX=0;entryY=0.5;entryDx=0;entryDy=0;" parent="1" target="ITwDlLuQBXxI53-09EQk-2" edge="1">
          <mxGeometry x="-1" y="3" relative="1" as="geometry">
            <mxPoint x="450" y="170" as="sourcePoint" />
            <mxPoint x="400" y="320" as="targetPoint" />
          </mxGeometry>
        </mxCell>
      </root>
    </mxGraphModel>
  </diagram>
</mxfile>
